<svg xmlns="http://www.w3.org/2000/svg" viewBox="0 0 186.27 62.91"><path fill="#000" d="M31.55 60.1V49h2.54v11.1zm49.38-4.17a4.55 4.55 0 1 1-4.54-4.37 4.33 4.33 0 0 1 4.54 4.37zm-2.5 0a2 2 0 1 0-4.08 0 2 2 0 1 0 4.08 0zm-47.9 1c0 1.9-1.27 3.21-3.92 3.21h-5.26V49h5c2.63 0 3.81 1.34 3.81 3a2.5 2.5 0 0 1-1.49 2.33 2.66 2.66 0 0 1 1.86 2.56zM24 53.44h2.1c.92 0 1.4-.44 1.4-1.2s-.56-1.13-1.4-1.13H24zm3.75 3.29c0-.75-.55-1.22-1.46-1.22H24v2.43h2.29c.95 0 1.45-.48 1.45-1.21zm24.9-2.89a4 4 0 0 0-4-2.27 4.14 4.14 0 0 0-4.4 4.35 4.07 4.07 0 0 0 4.37 4.39 4.08 4.08 0 0 0 4-2.25L50.58 57a2 2 0 0 1-1.86 1.12 2 2 0 0 1-1.94-2.2 2 2 0 0 1 1.92-2.18 1.91 1.91 0 0 1 1.83 1.18zm37.45 0a4 4 0 0 0-4-2.27 4.14 4.14 0 0 0-4.4 4.35 4.48 4.48 0 0 0 8.36 2.14L88 57a2 2 0 0 1-1.86 1.12 2 2 0 0 1-1.94-2.2 2 2 0 0 1 1.92-2.18A1.91 1.91 0 0 1 88 54.92zM71.84 60.1h-3l-2.12-3.75h-1.66v3.75h-2.62V49h4.72c2.55 0 4.34 1.22 4.34 3.62a3.46 3.46 0 0 1-2.11 3.28zm-3-7.45c0-1-.55-1.49-1.79-1.49h-2v3h2c1.17-.02 1.75-.7 1.75-1.51zm-24.97 5.56V60a4 4 0 0 1-1.49.27 1.7 1.7 0 0 1-1.74-1 3.75 3.75 0 0 1-2.75 1.1c-1.7 0-2.8-.87-2.8-2.53s1.32-2.59 3.35-2.59a8.29 8.29 0 0 1 2 .25v-.28c0-.92-.54-1.47-1.65-1.47a3.26 3.26 0 0 0-2 .8l-1.4-1.58a5.73 5.73 0 0 1 3.74-1.31c2.4 0 3.85 1.16 3.85 3.32v2.82c0 .31.16.47.49.47a1.65 1.65 0 0 0 .4-.06zm-3.43-1.41a6.44 6.44 0 0 0-1.44-.19c-.87 0-1.31.43-1.31 1s.39 1 1.17 1a1.41 1.41 0 0 0 1.57-1.26zm58.73 3.3l-3-5.19L99 51.85h-2.84l-3 3.29V49h-2.47v11.1h2.52v-2l1.2-1.29 1.89 3.29zm-37.42 0l-3-5.19 2.81-3.06h-2.85l-2.92 3.29V49h-2.52v11.1h2.52v-2L57 56.81l1.89 3.29zm-47-8.25l-1.48 5.41-1.81-5.41H8.7l3.36 8.33a1.12 1.12 0 0 1-1.19.68 1.82 1.82 0 0 1-1-.31L9 62.3a3.45 3.45 0 0 0 2 .61c1.88 0 3-1 3.67-3l2.73-8.07zm-6 4c0 2.72-1.66 4.44-3.84 4.44a3.15 3.15 0 0 1-2.43-1v.75H0V49h2.57v3.48a3.42 3.42 0 0 1 2.42-1c2.18-.02 3.78 1.68 3.78 4.4zm-2.56 0a2 2 0 0 0-1.95-2.21 2.16 2.16 0 0 0-1.69.89v2.75a2.16 2.16 0 0 0 1.74.8c1.18.03 1.92-.77 1.92-2.2zM0 7.34V.62h8.5v6.72zM0 37.8V10.3h8.5v27.5zm151.39-11.56h-19.1c.36 2.92 2.53 5.14 6.71 5.14a9.09 9.09 0 0 0 6.81-2.79l5.09 5.2c-2.61 3-6.75 4.74-11.86 4.74-9.76 0-15.47-5.62-15.47-14.68 0-8.38 5.53-14.47 14.3-14.47s13.86 5.35 13.86 13.31a15.9 15.9 0 0 1-.34 3.55zM143.23 21a5 5 0 0 0-5.36-4.89A5.27 5.27 0 0 0 132.3 21zm22.65 17.56c-4.21 0-9.35-1.1-13.14-4.71l4.85-5.22a12.19 12.19 0 0 0 8.26 3.3c3 0 4.25-.77 4.25-1.94 0-.89-.65-1.4-2.27-1.89-1.41-.42-3.64-.79-5.52-1.34-4.08-1.2-8.15-2.9-8.15-8.67 0-5.34 4.36-8.64 11.64-8.64 4 0 8.58.83 12.4 4.22l-4.91 5.1a10.91 10.91 0 0 0-7.56-2.81c-2.19 0-3.4.77-3.4 1.83 0 .9.64 1.42 2.3 1.95 1.43.47 3.81.91 5.7 1.44 3.92 1.11 8 2.78 8 8.25-.02 6.13-5.21 9.1-12.45 9.1zm-131-27.15a10.92 10.92 0 0 0-8.64-3.81c-3.59 0-5.47 1.29-5.47 3.13 0 2.49 2.84 3.35 8.25 4.88 6 1.68 12.73 3.57 12.73 11.42s-6.58 11.46-14.84 11.46c-7 0-12.65-2-16.31-6.93L17 26.3a11.88 11.88 0 0 0 9.85 4.59c4.46 0 6.09-1.58 6.09-3.23 0-2.44-2.59-3-8.84-4.78-6.44-1.79-12-4.27-12-11.85 0-6.68 5.47-11 14.42-11 5.65 0 10.89 1.51 14.65 6.18zm85.42-1.64a5.55 5.55 0 0 1 4.3 1.79l-3.41 7.16a4.81 4.81 0 0 0-2.92-.93c-2.17 0-4 1.87-4 5.27V37.8h-8.6V10.3h8.43v3.85c1.48-2.62 3.4-4.38 6.2-4.38zm-49.55 9.49V37.8h-8.49V22.25c0-3-1.6-4.81-4.43-4.81s-4.76 1.76-4.76 4.93V37.8h-8.49V.62h8.49V14a10.41 10.41 0 0 1 8.51-4.24c5.18-.01 9.17 3.37 9.17 9.5zm32.13 12.16v5.83a13.91 13.91 0 0 1-5 .91c-2.34 0-4.69-.73-5.79-3.45a12.52 12.52 0 0 1-9.17 3.66c-5.67 0-9.33-2.91-9.33-8.43S78 21.3 84.76 21.3a27.63 27.63 0 0 1 6.66.83v-.9c0-3.08-1.79-4.93-5.49-4.93a10.63 10.63 0 0 0-6.75 2.7l-4.68-5.28A18.92 18.92 0 0 1 87 9.34c8 0 12.84 3.86 12.84 11.07v9.64c0 1 .53 1.57 1.64 1.57a6.23 6.23 0 0 0 1.4-.2zm-11.46-4.71a20.6 20.6 0 0 0-4.75-.62c-2.92 0-4.37 1.43-4.37 3.4s1.28 3.22 3.91 3.22 5.21-1.67 5.21-4.19zm94.85 8.66a2.79 2.79 0 0 1-5.57 0 2.79 2.79 0 0 1 5.57 0zm-.46 0a2.34 2.34 0 1 0-4.67 0 2.34 2.34 0 1 0 4.67 0zm-1.77.32l.53 1H184l-.48-.9h-.61v.9h-.5V34h1.15c.66 0 1 .33 1 .86a.83.83 0 0 1-.56.83zm0-.84a.44.44 0 0 0-.5-.47h-.65v1h.58c.4-.04.6-.16.6-.53z"/></svg>